%TF.GenerationSoftware,KiCad,Pcbnew,7.0.8*%
%TF.CreationDate,2024-03-17T11:49:34-04:00*%
%TF.ProjectId,UMDv3,554d4476-332e-46b6-9963-61645f706362,rev?*%
%TF.SameCoordinates,Original*%
%TF.FileFunction,Legend,Bot*%
%TF.FilePolarity,Positive*%
%FSLAX46Y46*%
G04 Gerber Fmt 4.6, Leading zero omitted, Abs format (unit mm)*
G04 Created by KiCad (PCBNEW 7.0.8) date 2024-03-17 11:49:34*
%MOMM*%
%LPD*%
G01*
G04 APERTURE LIST*
%ADD10C,0.203200*%
%ADD11C,0.254000*%
G04 APERTURE END LIST*
D10*
X151547635Y-105939166D02*
X151589969Y-105896833D01*
X151589969Y-105896833D02*
X151632302Y-105769833D01*
X151632302Y-105769833D02*
X151632302Y-105685166D01*
X151632302Y-105685166D02*
X151589969Y-105558166D01*
X151589969Y-105558166D02*
X151505302Y-105473500D01*
X151505302Y-105473500D02*
X151420635Y-105431166D01*
X151420635Y-105431166D02*
X151251302Y-105388833D01*
X151251302Y-105388833D02*
X151124302Y-105388833D01*
X151124302Y-105388833D02*
X150954969Y-105431166D01*
X150954969Y-105431166D02*
X150870302Y-105473500D01*
X150870302Y-105473500D02*
X150785635Y-105558166D01*
X150785635Y-105558166D02*
X150743302Y-105685166D01*
X150743302Y-105685166D02*
X150743302Y-105769833D01*
X150743302Y-105769833D02*
X150785635Y-105896833D01*
X150785635Y-105896833D02*
X150827969Y-105939166D01*
X151632302Y-106785833D02*
X151632302Y-106277833D01*
X151632302Y-106531833D02*
X150743302Y-106531833D01*
X150743302Y-106531833D02*
X150870302Y-106447166D01*
X150870302Y-106447166D02*
X150954969Y-106362500D01*
X150954969Y-106362500D02*
X150997302Y-106277833D01*
X151632302Y-107632500D02*
X151632302Y-107124500D01*
X151632302Y-107378500D02*
X150743302Y-107378500D01*
X150743302Y-107378500D02*
X150870302Y-107293833D01*
X150870302Y-107293833D02*
X150954969Y-107209167D01*
X150954969Y-107209167D02*
X150997302Y-107124500D01*
X150743302Y-107928834D02*
X150743302Y-108521500D01*
X150743302Y-108521500D02*
X151632302Y-108140500D01*
X154156833Y-100646035D02*
X154199166Y-100688369D01*
X154199166Y-100688369D02*
X154326166Y-100730702D01*
X154326166Y-100730702D02*
X154410833Y-100730702D01*
X154410833Y-100730702D02*
X154537833Y-100688369D01*
X154537833Y-100688369D02*
X154622500Y-100603702D01*
X154622500Y-100603702D02*
X154664833Y-100519035D01*
X154664833Y-100519035D02*
X154707166Y-100349702D01*
X154707166Y-100349702D02*
X154707166Y-100222702D01*
X154707166Y-100222702D02*
X154664833Y-100053369D01*
X154664833Y-100053369D02*
X154622500Y-99968702D01*
X154622500Y-99968702D02*
X154537833Y-99884035D01*
X154537833Y-99884035D02*
X154410833Y-99841702D01*
X154410833Y-99841702D02*
X154326166Y-99841702D01*
X154326166Y-99841702D02*
X154199166Y-99884035D01*
X154199166Y-99884035D02*
X154156833Y-99926369D01*
X153310166Y-100730702D02*
X153818166Y-100730702D01*
X153564166Y-100730702D02*
X153564166Y-99841702D01*
X153564166Y-99841702D02*
X153648833Y-99968702D01*
X153648833Y-99968702D02*
X153733500Y-100053369D01*
X153733500Y-100053369D02*
X153818166Y-100095702D01*
X152463499Y-100730702D02*
X152971499Y-100730702D01*
X152717499Y-100730702D02*
X152717499Y-99841702D01*
X152717499Y-99841702D02*
X152802166Y-99968702D01*
X152802166Y-99968702D02*
X152886833Y-100053369D01*
X152886833Y-100053369D02*
X152971499Y-100095702D01*
X151955499Y-100222702D02*
X152040166Y-100180369D01*
X152040166Y-100180369D02*
X152082499Y-100138035D01*
X152082499Y-100138035D02*
X152124832Y-100053369D01*
X152124832Y-100053369D02*
X152124832Y-100011035D01*
X152124832Y-100011035D02*
X152082499Y-99926369D01*
X152082499Y-99926369D02*
X152040166Y-99884035D01*
X152040166Y-99884035D02*
X151955499Y-99841702D01*
X151955499Y-99841702D02*
X151786166Y-99841702D01*
X151786166Y-99841702D02*
X151701499Y-99884035D01*
X151701499Y-99884035D02*
X151659166Y-99926369D01*
X151659166Y-99926369D02*
X151616832Y-100011035D01*
X151616832Y-100011035D02*
X151616832Y-100053369D01*
X151616832Y-100053369D02*
X151659166Y-100138035D01*
X151659166Y-100138035D02*
X151701499Y-100180369D01*
X151701499Y-100180369D02*
X151786166Y-100222702D01*
X151786166Y-100222702D02*
X151955499Y-100222702D01*
X151955499Y-100222702D02*
X152040166Y-100265035D01*
X152040166Y-100265035D02*
X152082499Y-100307369D01*
X152082499Y-100307369D02*
X152124832Y-100392035D01*
X152124832Y-100392035D02*
X152124832Y-100561369D01*
X152124832Y-100561369D02*
X152082499Y-100646035D01*
X152082499Y-100646035D02*
X152040166Y-100688369D01*
X152040166Y-100688369D02*
X151955499Y-100730702D01*
X151955499Y-100730702D02*
X151786166Y-100730702D01*
X151786166Y-100730702D02*
X151701499Y-100688369D01*
X151701499Y-100688369D02*
X151659166Y-100646035D01*
X151659166Y-100646035D02*
X151616832Y-100561369D01*
X151616832Y-100561369D02*
X151616832Y-100392035D01*
X151616832Y-100392035D02*
X151659166Y-100307369D01*
X151659166Y-100307369D02*
X151701499Y-100265035D01*
X151701499Y-100265035D02*
X151786166Y-100222702D01*
X156925433Y-106640435D02*
X156967766Y-106682769D01*
X156967766Y-106682769D02*
X157094766Y-106725102D01*
X157094766Y-106725102D02*
X157179433Y-106725102D01*
X157179433Y-106725102D02*
X157306433Y-106682769D01*
X157306433Y-106682769D02*
X157391100Y-106598102D01*
X157391100Y-106598102D02*
X157433433Y-106513435D01*
X157433433Y-106513435D02*
X157475766Y-106344102D01*
X157475766Y-106344102D02*
X157475766Y-106217102D01*
X157475766Y-106217102D02*
X157433433Y-106047769D01*
X157433433Y-106047769D02*
X157391100Y-105963102D01*
X157391100Y-105963102D02*
X157306433Y-105878435D01*
X157306433Y-105878435D02*
X157179433Y-105836102D01*
X157179433Y-105836102D02*
X157094766Y-105836102D01*
X157094766Y-105836102D02*
X156967766Y-105878435D01*
X156967766Y-105878435D02*
X156925433Y-105920769D01*
X156078766Y-106725102D02*
X156586766Y-106725102D01*
X156332766Y-106725102D02*
X156332766Y-105836102D01*
X156332766Y-105836102D02*
X156417433Y-105963102D01*
X156417433Y-105963102D02*
X156502100Y-106047769D01*
X156502100Y-106047769D02*
X156586766Y-106090102D01*
X155740099Y-105920769D02*
X155697766Y-105878435D01*
X155697766Y-105878435D02*
X155613099Y-105836102D01*
X155613099Y-105836102D02*
X155401433Y-105836102D01*
X155401433Y-105836102D02*
X155316766Y-105878435D01*
X155316766Y-105878435D02*
X155274433Y-105920769D01*
X155274433Y-105920769D02*
X155232099Y-106005435D01*
X155232099Y-106005435D02*
X155232099Y-106090102D01*
X155232099Y-106090102D02*
X155274433Y-106217102D01*
X155274433Y-106217102D02*
X155782433Y-106725102D01*
X155782433Y-106725102D02*
X155232099Y-106725102D01*
X154681766Y-105836102D02*
X154597099Y-105836102D01*
X154597099Y-105836102D02*
X154512432Y-105878435D01*
X154512432Y-105878435D02*
X154470099Y-105920769D01*
X154470099Y-105920769D02*
X154427766Y-106005435D01*
X154427766Y-106005435D02*
X154385432Y-106174769D01*
X154385432Y-106174769D02*
X154385432Y-106386435D01*
X154385432Y-106386435D02*
X154427766Y-106555769D01*
X154427766Y-106555769D02*
X154470099Y-106640435D01*
X154470099Y-106640435D02*
X154512432Y-106682769D01*
X154512432Y-106682769D02*
X154597099Y-106725102D01*
X154597099Y-106725102D02*
X154681766Y-106725102D01*
X154681766Y-106725102D02*
X154766432Y-106682769D01*
X154766432Y-106682769D02*
X154808766Y-106640435D01*
X154808766Y-106640435D02*
X154851099Y-106555769D01*
X154851099Y-106555769D02*
X154893432Y-106386435D01*
X154893432Y-106386435D02*
X154893432Y-106174769D01*
X154893432Y-106174769D02*
X154851099Y-106005435D01*
X154851099Y-106005435D02*
X154808766Y-105920769D01*
X154808766Y-105920769D02*
X154766432Y-105878435D01*
X154766432Y-105878435D02*
X154681766Y-105836102D01*
X158100835Y-109190366D02*
X158143169Y-109148033D01*
X158143169Y-109148033D02*
X158185502Y-109021033D01*
X158185502Y-109021033D02*
X158185502Y-108936366D01*
X158185502Y-108936366D02*
X158143169Y-108809366D01*
X158143169Y-108809366D02*
X158058502Y-108724700D01*
X158058502Y-108724700D02*
X157973835Y-108682366D01*
X157973835Y-108682366D02*
X157804502Y-108640033D01*
X157804502Y-108640033D02*
X157677502Y-108640033D01*
X157677502Y-108640033D02*
X157508169Y-108682366D01*
X157508169Y-108682366D02*
X157423502Y-108724700D01*
X157423502Y-108724700D02*
X157338835Y-108809366D01*
X157338835Y-108809366D02*
X157296502Y-108936366D01*
X157296502Y-108936366D02*
X157296502Y-109021033D01*
X157296502Y-109021033D02*
X157338835Y-109148033D01*
X157338835Y-109148033D02*
X157381169Y-109190366D01*
X158185502Y-110037033D02*
X158185502Y-109529033D01*
X158185502Y-109783033D02*
X157296502Y-109783033D01*
X157296502Y-109783033D02*
X157423502Y-109698366D01*
X157423502Y-109698366D02*
X157508169Y-109613700D01*
X157508169Y-109613700D02*
X157550502Y-109529033D01*
X157381169Y-110375700D02*
X157338835Y-110418033D01*
X157338835Y-110418033D02*
X157296502Y-110502700D01*
X157296502Y-110502700D02*
X157296502Y-110714367D01*
X157296502Y-110714367D02*
X157338835Y-110799033D01*
X157338835Y-110799033D02*
X157381169Y-110841367D01*
X157381169Y-110841367D02*
X157465835Y-110883700D01*
X157465835Y-110883700D02*
X157550502Y-110883700D01*
X157550502Y-110883700D02*
X157677502Y-110841367D01*
X157677502Y-110841367D02*
X158185502Y-110333367D01*
X158185502Y-110333367D02*
X158185502Y-110883700D01*
X158185502Y-111730367D02*
X158185502Y-111222367D01*
X158185502Y-111476367D02*
X157296502Y-111476367D01*
X157296502Y-111476367D02*
X157423502Y-111391700D01*
X157423502Y-111391700D02*
X157508169Y-111307034D01*
X157508169Y-111307034D02*
X157550502Y-111222367D01*
X148906035Y-109495166D02*
X148948369Y-109452833D01*
X148948369Y-109452833D02*
X148990702Y-109325833D01*
X148990702Y-109325833D02*
X148990702Y-109241166D01*
X148990702Y-109241166D02*
X148948369Y-109114166D01*
X148948369Y-109114166D02*
X148863702Y-109029500D01*
X148863702Y-109029500D02*
X148779035Y-108987166D01*
X148779035Y-108987166D02*
X148609702Y-108944833D01*
X148609702Y-108944833D02*
X148482702Y-108944833D01*
X148482702Y-108944833D02*
X148313369Y-108987166D01*
X148313369Y-108987166D02*
X148228702Y-109029500D01*
X148228702Y-109029500D02*
X148144035Y-109114166D01*
X148144035Y-109114166D02*
X148101702Y-109241166D01*
X148101702Y-109241166D02*
X148101702Y-109325833D01*
X148101702Y-109325833D02*
X148144035Y-109452833D01*
X148144035Y-109452833D02*
X148186369Y-109495166D01*
X148990702Y-110341833D02*
X148990702Y-109833833D01*
X148990702Y-110087833D02*
X148101702Y-110087833D01*
X148101702Y-110087833D02*
X148228702Y-110003166D01*
X148228702Y-110003166D02*
X148313369Y-109918500D01*
X148313369Y-109918500D02*
X148355702Y-109833833D01*
X148186369Y-110680500D02*
X148144035Y-110722833D01*
X148144035Y-110722833D02*
X148101702Y-110807500D01*
X148101702Y-110807500D02*
X148101702Y-111019167D01*
X148101702Y-111019167D02*
X148144035Y-111103833D01*
X148144035Y-111103833D02*
X148186369Y-111146167D01*
X148186369Y-111146167D02*
X148271035Y-111188500D01*
X148271035Y-111188500D02*
X148355702Y-111188500D01*
X148355702Y-111188500D02*
X148482702Y-111146167D01*
X148482702Y-111146167D02*
X148990702Y-110638167D01*
X148990702Y-110638167D02*
X148990702Y-111188500D01*
X148186369Y-111527167D02*
X148144035Y-111569500D01*
X148144035Y-111569500D02*
X148101702Y-111654167D01*
X148101702Y-111654167D02*
X148101702Y-111865834D01*
X148101702Y-111865834D02*
X148144035Y-111950500D01*
X148144035Y-111950500D02*
X148186369Y-111992834D01*
X148186369Y-111992834D02*
X148271035Y-112035167D01*
X148271035Y-112035167D02*
X148355702Y-112035167D01*
X148355702Y-112035167D02*
X148482702Y-111992834D01*
X148482702Y-111992834D02*
X148990702Y-111484834D01*
X148990702Y-111484834D02*
X148990702Y-112035167D01*
X152843035Y-105939166D02*
X152885369Y-105896833D01*
X152885369Y-105896833D02*
X152927702Y-105769833D01*
X152927702Y-105769833D02*
X152927702Y-105685166D01*
X152927702Y-105685166D02*
X152885369Y-105558166D01*
X152885369Y-105558166D02*
X152800702Y-105473500D01*
X152800702Y-105473500D02*
X152716035Y-105431166D01*
X152716035Y-105431166D02*
X152546702Y-105388833D01*
X152546702Y-105388833D02*
X152419702Y-105388833D01*
X152419702Y-105388833D02*
X152250369Y-105431166D01*
X152250369Y-105431166D02*
X152165702Y-105473500D01*
X152165702Y-105473500D02*
X152081035Y-105558166D01*
X152081035Y-105558166D02*
X152038702Y-105685166D01*
X152038702Y-105685166D02*
X152038702Y-105769833D01*
X152038702Y-105769833D02*
X152081035Y-105896833D01*
X152081035Y-105896833D02*
X152123369Y-105939166D01*
X152927702Y-106785833D02*
X152927702Y-106277833D01*
X152927702Y-106531833D02*
X152038702Y-106531833D01*
X152038702Y-106531833D02*
X152165702Y-106447166D01*
X152165702Y-106447166D02*
X152250369Y-106362500D01*
X152250369Y-106362500D02*
X152292702Y-106277833D01*
X152123369Y-107124500D02*
X152081035Y-107166833D01*
X152081035Y-107166833D02*
X152038702Y-107251500D01*
X152038702Y-107251500D02*
X152038702Y-107463167D01*
X152038702Y-107463167D02*
X152081035Y-107547833D01*
X152081035Y-107547833D02*
X152123369Y-107590167D01*
X152123369Y-107590167D02*
X152208035Y-107632500D01*
X152208035Y-107632500D02*
X152292702Y-107632500D01*
X152292702Y-107632500D02*
X152419702Y-107590167D01*
X152419702Y-107590167D02*
X152927702Y-107082167D01*
X152927702Y-107082167D02*
X152927702Y-107632500D01*
X152038702Y-107928834D02*
X152038702Y-108479167D01*
X152038702Y-108479167D02*
X152377369Y-108182834D01*
X152377369Y-108182834D02*
X152377369Y-108309834D01*
X152377369Y-108309834D02*
X152419702Y-108394500D01*
X152419702Y-108394500D02*
X152462035Y-108436834D01*
X152462035Y-108436834D02*
X152546702Y-108479167D01*
X152546702Y-108479167D02*
X152758369Y-108479167D01*
X152758369Y-108479167D02*
X152843035Y-108436834D01*
X152843035Y-108436834D02*
X152885369Y-108394500D01*
X152885369Y-108394500D02*
X152927702Y-108309834D01*
X152927702Y-108309834D02*
X152927702Y-108055834D01*
X152927702Y-108055834D02*
X152885369Y-107971167D01*
X152885369Y-107971167D02*
X152843035Y-107928834D01*
X148086233Y-102322435D02*
X148128566Y-102364769D01*
X148128566Y-102364769D02*
X148255566Y-102407102D01*
X148255566Y-102407102D02*
X148340233Y-102407102D01*
X148340233Y-102407102D02*
X148467233Y-102364769D01*
X148467233Y-102364769D02*
X148551900Y-102280102D01*
X148551900Y-102280102D02*
X148594233Y-102195435D01*
X148594233Y-102195435D02*
X148636566Y-102026102D01*
X148636566Y-102026102D02*
X148636566Y-101899102D01*
X148636566Y-101899102D02*
X148594233Y-101729769D01*
X148594233Y-101729769D02*
X148551900Y-101645102D01*
X148551900Y-101645102D02*
X148467233Y-101560435D01*
X148467233Y-101560435D02*
X148340233Y-101518102D01*
X148340233Y-101518102D02*
X148255566Y-101518102D01*
X148255566Y-101518102D02*
X148128566Y-101560435D01*
X148128566Y-101560435D02*
X148086233Y-101602769D01*
X147239566Y-102407102D02*
X147747566Y-102407102D01*
X147493566Y-102407102D02*
X147493566Y-101518102D01*
X147493566Y-101518102D02*
X147578233Y-101645102D01*
X147578233Y-101645102D02*
X147662900Y-101729769D01*
X147662900Y-101729769D02*
X147747566Y-101772102D01*
X146392899Y-102407102D02*
X146900899Y-102407102D01*
X146646899Y-102407102D02*
X146646899Y-101518102D01*
X146646899Y-101518102D02*
X146731566Y-101645102D01*
X146731566Y-101645102D02*
X146816233Y-101729769D01*
X146816233Y-101729769D02*
X146900899Y-101772102D01*
X145969566Y-102407102D02*
X145800232Y-102407102D01*
X145800232Y-102407102D02*
X145715566Y-102364769D01*
X145715566Y-102364769D02*
X145673232Y-102322435D01*
X145673232Y-102322435D02*
X145588566Y-102195435D01*
X145588566Y-102195435D02*
X145546232Y-102026102D01*
X145546232Y-102026102D02*
X145546232Y-101687435D01*
X145546232Y-101687435D02*
X145588566Y-101602769D01*
X145588566Y-101602769D02*
X145630899Y-101560435D01*
X145630899Y-101560435D02*
X145715566Y-101518102D01*
X145715566Y-101518102D02*
X145884899Y-101518102D01*
X145884899Y-101518102D02*
X145969566Y-101560435D01*
X145969566Y-101560435D02*
X146011899Y-101602769D01*
X146011899Y-101602769D02*
X146054232Y-101687435D01*
X146054232Y-101687435D02*
X146054232Y-101899102D01*
X146054232Y-101899102D02*
X146011899Y-101983769D01*
X146011899Y-101983769D02*
X145969566Y-102026102D01*
X145969566Y-102026102D02*
X145884899Y-102068435D01*
X145884899Y-102068435D02*
X145715566Y-102068435D01*
X145715566Y-102068435D02*
X145630899Y-102026102D01*
X145630899Y-102026102D02*
X145588566Y-101983769D01*
X145588566Y-101983769D02*
X145546232Y-101899102D01*
D11*
%TO.C,C117*%
X154000200Y-110109000D02*
X153238200Y-110109000D01*
%TO.C,C118*%
X156464000Y-99949000D02*
X156464000Y-100711000D01*
%TO.C,C120*%
X155930600Y-107416600D02*
X155930600Y-108178600D01*
%TO.C,C121*%
X156794200Y-110109000D02*
X156032200Y-110109000D01*
%TO.C,C122*%
X147447000Y-110617000D02*
X146685000Y-110617000D01*
%TO.C,C123*%
X155397200Y-110109000D02*
X154635200Y-110109000D01*
%TO.C,C119*%
X147015200Y-101041200D02*
X147015200Y-100279200D01*
%TD*%
M02*
