M48
; DRILL file {KiCad 7.0.8} date Sun Mar 17 11:49:44 2024
; FORMAT={3:3/ absolute / metric / suppress leading zeros}
; #@! TF.CreationDate,2024-03-17T11:49:44-04:00
; #@! TF.GenerationSoftware,Kicad,Pcbnew,7.0.8
; #@! TF.FileFunction,MixedPlating,1,2
FMAT,2
METRIC,TZ
; #@! TA.AperFunction,Plated,PTH,ViaDrill
T1C0.305
; #@! TA.AperFunction,Plated,PTH,ComponentDrill
T2C1.000
; #@! TA.AperFunction,Plated,PTH,ComponentDrill
T3C1.016
; #@! TA.AperFunction,Plated,PTH,ComponentDrill
T4C2.330
; #@! TA.AperFunction,Plated,PTH,ComponentDrill
T5C3.175
; #@! TA.AperFunction,NonPlated,NPTH,ComponentDrill
T6C1.200
%
G90
G05
T1
X80010Y-76200
X80010Y-86360
X80010Y-106680
X85090Y-71120
X85090Y-76200
X85090Y-81280
X85090Y-86360
X85090Y-106680
X90170Y-71120
X90170Y-76200
X90170Y-81280
X90170Y-86360
X90170Y-106680
X90191Y-111846
X95250Y-71120
X95250Y-76200
X95250Y-81280
X95250Y-86360
X95250Y-106680
X95250Y-111760
X100330Y-71120
X100330Y-76200
X100330Y-81280
X100330Y-86360
X100330Y-91440
X100330Y-96520
X100330Y-111760
X101600Y-104140
X105410Y-71120
X105410Y-76200
X105410Y-81280
X105410Y-91440
X105410Y-111760
X109220Y-102870
X109652Y-95733
X110490Y-81280
X110490Y-83820
X110490Y-86360
X110490Y-91440
X110490Y-97790
X110490Y-106680
X110490Y-111760
X110490Y-116840
X113030Y-86360
X113030Y-88900
X115570Y-76200
X115570Y-81280
X115570Y-88900
X115570Y-91440
X115570Y-101600
X115570Y-106680
X115570Y-111760
X115570Y-116840
X118161Y-78562
X118161Y-84950
X120650Y-71120
X120650Y-76200
X120650Y-83820
X120650Y-88900
X120650Y-91440
X120650Y-106680
X120650Y-111760
X120650Y-116840
X120650Y-121920
X120650Y-127000
X120650Y-132080
X120650Y-137160
X120650Y-142240
X120650Y-147320
X123190Y-86360
X125730Y-71120
X125730Y-76200
X125730Y-81280
X125730Y-86360
X125730Y-88900
X125730Y-142240
X125730Y-147320
X125933Y-94183
X126289Y-106680
X128041Y-104953
X128041Y-108483
X128270Y-86360
X128270Y-88900
X128270Y-91440
X128778Y-93091
X128803Y-100381
X128803Y-105842
X129388Y-107772
X129972Y-106883
X130023Y-83718
X130810Y-76200
X130810Y-81280
X130810Y-86360
X130810Y-91440
X132588Y-83642
X133909Y-106045
X133960Y-109068
X134341Y-117348
X134620Y-94183
X134620Y-101829
X134772Y-109068
X135128Y-83642
X135890Y-76200
X135890Y-81280
X135890Y-111760
X135890Y-121920
X135890Y-137160
X135909Y-104527
X136169Y-92100
X136195Y-93726
X136627Y-101803
X136652Y-120015
X136956Y-96385
X137033Y-90551
X137033Y-93726
X137274Y-95664
X137419Y-103388
X137668Y-84226
X137668Y-110515
X137846Y-90551
X137847Y-93714
X138201Y-103482
X138278Y-111023
X138633Y-98933
X138659Y-90551
X138689Y-93652
X138862Y-110490
X139167Y-102768
X139217Y-99492
X139446Y-111023
X139471Y-90551
X139521Y-93676
X139544Y-107695
X139802Y-100101
X139898Y-102342
X139903Y-103149
X139954Y-104699
X140030Y-110490
X140287Y-107957
X140396Y-100701
X140589Y-97282
X140818Y-104699
X140970Y-76200
X140970Y-81280
X140970Y-116840
X140970Y-121920
X140970Y-142240
X140970Y-147320
X141046Y-101333
X141732Y-104699
X142343Y-84223
X143307Y-84226
X144000Y-80379
X144170Y-95910
X144572Y-79771
X144780Y-114300
X144780Y-116840
X144780Y-119380
X146014Y-111389
X146050Y-76200
X146050Y-81280
X146050Y-86360
X146050Y-91440
X146050Y-99568
X146050Y-121920
X146050Y-127000
X146050Y-133350
X146050Y-142240
X146050Y-147320
X146558Y-119431
X147142Y-118847
X147320Y-102870
X147320Y-105410
X147320Y-107950
X147853Y-118491
X148562Y-118111
X148590Y-127000
X149276Y-117780
X149758Y-77876
X149809Y-116281
X149860Y-100330
X149860Y-102870
X149860Y-105410
X149860Y-107950
X149860Y-111760
X149987Y-117424
X150368Y-93142
X150622Y-95541
X150635Y-116853
X151054Y-112268
X151072Y-94895
X151130Y-76200
X151130Y-81280
X151130Y-86360
X151130Y-121920
X151130Y-127000
X152400Y-100330
X152400Y-102870
X152400Y-105410
X152400Y-107950
X152527Y-95809
X152527Y-120015
X153043Y-93406
X153121Y-117077
X153391Y-119990
X153638Y-93921
X153670Y-121920
X153670Y-127000
X153820Y-116714
X153949Y-119405
X154127Y-94539
X154508Y-116332
X154559Y-95199
X154661Y-119050
X154940Y-102870
X154940Y-105410
X155067Y-112268
X155219Y-115976
X155372Y-118694
X155677Y-86614
X155981Y-88925
X156083Y-118339
X156108Y-90195
X156122Y-91465
X156210Y-71120
X156210Y-76200
X156210Y-127000
X156312Y-112268
X156478Y-85134
X156489Y-82906
X156489Y-83769
X156515Y-82042
X157478Y-85852
X157480Y-102870
X157480Y-105410
X157480Y-111760
X158344Y-100533
X158394Y-110922
X158648Y-85166
X158648Y-117158
X158674Y-88925
X158674Y-90170
X158699Y-91465
X158750Y-121920
X158750Y-127000
X159233Y-85852
X159512Y-91491
X159741Y-86614
X159868Y-82042
X159868Y-82906
X159868Y-83769
X160325Y-91516
X160350Y-98527
X161163Y-91516
X161290Y-86487
X161290Y-113030
X161290Y-121920
X161290Y-124460
X161290Y-127000
X161290Y-137160
X161976Y-91516
X161976Y-92329
X164414Y-120802
X165227Y-120802
X165811Y-120244
X166116Y-116180
X166370Y-71120
X166370Y-76200
X166370Y-121920
X166370Y-129540
X166624Y-120244
X166827Y-86385
X166827Y-91999
X166929Y-116205
X167437Y-120244
X167665Y-87655
X167665Y-91999
X167894Y-123266
X167894Y-124460
X168224Y-120218
X169037Y-101295
X169088Y-120244
X169672Y-119634
X169774Y-115011
X169850Y-101295
X170358Y-115545
X170383Y-107874
X170586Y-118339
X170586Y-119659
X170663Y-101295
X170713Y-128346
X170942Y-116103
X171044Y-108331
X171146Y-118910
X171298Y-100787
X171374Y-129565
X171374Y-130810
X171450Y-71120
X171450Y-76200
X171450Y-110490
X171628Y-108915
X171882Y-100254
X172466Y-100787
X173050Y-100228
X173152Y-127025
X173609Y-69799
X173634Y-100762
X173990Y-147320
X174904Y-97765
X174981Y-95123
X175616Y-107925
X175666Y-118110
X175717Y-123165
X175819Y-72415
X175819Y-74397
X175844Y-98476
X176047Y-92735
X176124Y-128321
X176149Y-130810
X179435Y-101538
X181585Y-96520
X181585Y-99060
X181610Y-81356
X181610Y-83795
X181610Y-86360
X181610Y-88925
X181635Y-76175
X181635Y-91465
X181635Y-93980
X186690Y-71120
X186690Y-147320
X189230Y-68580
X190805Y-145034
X217170Y-68580
X217170Y-147320
X219710Y-72390
X219710Y-143510
T2
X123527Y-83223
X126067Y-83223
X153550Y-135382
X156090Y-135382
X165100Y-135382
X167640Y-135382
T3
X91567Y-118032
X94107Y-118032
X96647Y-118032
X99187Y-118032
X109748Y-72771
X109748Y-74771
X112248Y-72771
X112248Y-74771
X127508Y-70612
X127508Y-73152
X130048Y-70358
X130048Y-72898
X132588Y-70612
X132588Y-73152
X135128Y-70358
X135128Y-72898
X137668Y-70612
X137668Y-73152
X140208Y-70358
X140208Y-72898
X142748Y-70612
X142748Y-73152
X145288Y-70358
X145288Y-72898
X147828Y-70612
X147828Y-73152
X150368Y-70358
X150368Y-72898
X159512Y-94640
X162052Y-94640
X164592Y-94640
X177546Y-68580
X177546Y-71120
X177546Y-73660
X177546Y-76200
X177546Y-78740
X177546Y-81280
X177546Y-83820
X177546Y-86360
X177546Y-88900
X177546Y-91440
X177546Y-93980
X177546Y-96520
X177546Y-99060
X177546Y-101600
X177546Y-104140
X177546Y-106680
X177546Y-109220
X177546Y-111760
X177546Y-114300
X177546Y-116840
X177546Y-119380
X177546Y-121920
X177546Y-124460
X177546Y-127000
X177546Y-129540
X177546Y-132080
X177546Y-134620
X177546Y-137160
X177546Y-139700
X177546Y-142240
X177546Y-144780
X177546Y-147320
X195326Y-68580
X195326Y-71120
X195326Y-73660
X195326Y-76200
X195326Y-78740
X195326Y-81280
X195326Y-83820
X195326Y-86360
X195326Y-88900
X195326Y-91440
X195326Y-93980
X195326Y-96520
X195326Y-99060
X195326Y-101600
X195326Y-104140
X195326Y-106680
X195326Y-109220
X195326Y-111760
X195326Y-114300
X195326Y-116840
X195326Y-119380
X195326Y-121920
X195326Y-124460
X195326Y-127000
X195326Y-129540
X195326Y-132080
X195326Y-134620
X195326Y-137160
X195326Y-139700
X195326Y-142240
X195326Y-144780
X195326Y-147320
X210566Y-68580
X210566Y-71120
X210566Y-73660
X210566Y-76200
X210566Y-78740
X210566Y-81280
X210566Y-83820
X210566Y-86360
X210566Y-88900
X210566Y-91440
X210566Y-93980
X210566Y-96520
X210566Y-99060
X210566Y-101600
X210566Y-104140
X210566Y-106680
X210566Y-109220
X210566Y-111760
X210566Y-114300
X210566Y-116840
X210566Y-119380
X210566Y-121920
X210566Y-124460
X210566Y-127000
X210566Y-129540
X210566Y-132080
X210566Y-134620
X210566Y-137160
X210566Y-139700
X210566Y-142240
X210566Y-144780
X210566Y-147320
X213106Y-68580
X213106Y-71120
X213106Y-73660
X213106Y-76200
X213106Y-78740
X213106Y-81280
X213106Y-83820
X213106Y-86360
X213106Y-88900
X213106Y-91440
X213106Y-93980
X213106Y-96520
X213106Y-99060
X213106Y-101600
X213106Y-104140
X213106Y-106680
X213106Y-109220
X213106Y-111760
X213106Y-114300
X213106Y-116840
X213106Y-119380
X213106Y-121920
X213106Y-124460
X213106Y-127000
X213106Y-129540
X213106Y-132080
X213106Y-134620
X213106Y-137160
X213106Y-139700
X213106Y-142240
X213106Y-144780
X213106Y-147320
T4
X104978Y-70061
X117018Y-70061
T5
X78740Y-69850
X78740Y-146050
X84377Y-118032
X84377Y-140032
X106377Y-118032
X106377Y-140032
X182880Y-69850
X182880Y-146050
X200660Y-69850
X200660Y-146050
T6
X101135Y-84474
X101135Y-109074
T0
M30
