M48
; DRILL file {KiCad (6.0.5)} date Tue Aug 23 15:08:02 2022
; FORMAT={-:-/ absolute / inch / decimal}
; #@! TF.CreationDate,2022-08-23T15:08:02-04:00
; #@! TF.GenerationSoftware,Kicad,Pcbnew,(6.0.5)
; #@! TF.FileFunction,Plated,1,2,PTH
FMAT,2
INCH
; #@! TA.AperFunction,Plated,PTH,ViaDrill
T1C0.0120
; #@! TA.AperFunction,Plated,PTH,ComponentDrill
T2C0.0400
; #@! TA.AperFunction,Plated,PTH,ComponentDrill
T3C0.1250
%
G90
G05
T1
X3.15Y-3.0
X3.15Y-3.4
X3.15Y-4.2
X3.35Y-2.8
X3.35Y-3.0
X3.35Y-3.2
X3.35Y-3.4
X3.35Y-4.2
X3.55Y-2.8
X3.55Y-3.0
X3.55Y-3.2
X3.55Y-3.4
X3.55Y-4.2
X3.55Y-4.4
X3.55Y-4.6
X3.75Y-3.0
X3.75Y-3.2
X3.75Y-3.4
X3.75Y-4.2
X3.75Y-4.4
X3.95Y-3.2
X3.95Y-3.4
X3.95Y-3.6
X3.95Y-3.8
X4.15Y-2.8
X4.15Y-3.2
X4.15Y-3.6
X4.15Y-4.2
X4.15Y-4.4
X4.35Y-3.0
X4.35Y-3.2
X4.35Y-3.6
X4.35Y-4.0
X4.35Y-4.2
X4.484Y-3.35
X4.509Y-2.977
X4.55Y-3.2
X4.55Y-4.0
X4.55Y-4.2
X4.55Y-4.4
X4.679Y-2.715
X4.75Y-2.8
X4.75Y-3.0
X4.75Y-3.2
X4.75Y-3.4
X4.75Y-3.7
X4.75Y-4.2
X4.75Y-4.4
X4.75Y-4.6
X4.75Y-4.8
X4.75Y-5.0
X4.75Y-5.2
X4.75Y-5.4
X4.75Y-5.6
X4.75Y-5.8
X4.861Y-4.205
X4.861Y-4.278
X4.95Y-2.8
X4.95Y-3.2
X4.95Y-3.4
X4.95Y-3.6
X4.95Y-4.6
X4.95Y-5.6
X4.95Y-5.8
X4.972Y-4.2
X5.07Y-3.665
X5.071Y-3.952
X5.071Y-4.167
X5.094Y-4.243
X5.117Y-4.208
X5.119Y-3.296
X5.15Y-3.0
X5.15Y-3.2
X5.15Y-3.4
X5.15Y-3.6
X5.22Y-3.293
X5.25Y-4.6
X5.272Y-4.175
X5.274Y-4.294
X5.3Y-3.708
X5.3Y-4.009
X5.306Y-4.294
X5.32Y-3.293
X5.35Y-3.0
X5.35Y-3.2
X5.35Y-4.4
X5.35Y-4.8
X5.35Y-5.4
X5.3507Y-4.1152
X5.361Y-3.626
X5.362Y-3.69
X5.379Y-4.008
X5.38Y-4.725
X5.392Y-3.7947
X5.395Y-3.565
X5.395Y-3.69
X5.4045Y-3.7663
X5.4102Y-4.0704
X5.42Y-3.316
X5.42Y-4.351
X5.427Y-3.565
X5.4271Y-3.6895
X5.441Y-4.0741
X5.444Y-4.371
X5.458Y-3.895
X5.459Y-3.565
X5.4602Y-3.6871
X5.467Y-4.35
X5.479Y-4.046
X5.481Y-3.917
X5.49Y-4.371
X5.491Y-3.565
X5.493Y-3.688
X5.4939Y-4.24
X5.504Y-3.941
X5.5078Y-4.0292
X5.508Y-4.061
X5.51Y-4.122
X5.513Y-4.35
X5.5231Y-4.2503
X5.5274Y-3.9646
X5.535Y-3.83
X5.544Y-4.122
X5.55Y-3.0
X5.55Y-3.2
X5.55Y-4.6
X5.55Y-4.8
X5.55Y-5.6
X5.55Y-5.8
X5.553Y-3.9895
X5.58Y-4.122
X5.6041Y-3.3159
X5.642Y-3.316
X5.6693Y-3.1645
X5.676Y-3.776
X5.6918Y-3.1406
X5.7Y-4.5
X5.7Y-4.6
X5.7Y-4.7
X5.7486Y-4.3854
X5.75Y-3.0
X5.75Y-3.2
X5.75Y-3.4
X5.75Y-3.6
X5.75Y-3.92
X5.75Y-4.8
X5.75Y-5.0
X5.75Y-5.6
X5.75Y-5.8
X5.77Y-4.702
X5.793Y-4.679
X5.8Y-4.05
X5.8Y-4.15
X5.8Y-4.25
X5.821Y-4.665
X5.8489Y-4.6501
X5.85Y-5.0
X5.877Y-4.637
X5.896Y-3.066
X5.898Y-4.578
X5.9Y-3.95
X5.9Y-4.05
X5.9Y-4.15
X5.9Y-4.25
X5.9Y-4.4
X5.905Y-4.623
X5.92Y-3.667
X5.93Y-3.7615
X5.9305Y-4.6005
X5.947Y-4.42
X5.9477Y-3.736
X5.95Y-3.0
X5.95Y-3.2
X5.95Y-3.4
X5.95Y-4.8
X5.95Y-5.0
X5.95Y-5.2
X5.95Y-5.4
X6.0Y-3.95
X6.0Y-4.05
X6.0Y-4.15
X6.0Y-4.25
X6.005Y-3.772
X6.005Y-4.725
X6.0253Y-3.6774
X6.0284Y-4.6093
X6.039Y-4.724
X6.0488Y-3.6977
X6.05Y-4.8
X6.05Y-5.0
X6.0559Y-4.5951
X6.061Y-4.701
X6.068Y-3.722
X6.083Y-4.58
X6.085Y-3.748
X6.089Y-4.687
X6.1Y-4.05
X6.1Y-4.15
X6.105Y-4.42
X6.111Y-4.566
X6.117Y-4.673
X6.129Y-3.41
X6.141Y-3.501
X6.145Y-4.659
X6.146Y-3.551
X6.1465Y-3.601
X6.15Y-2.8
X6.15Y-3.0
X6.15Y-5.0
X6.15Y-5.2
X6.154Y-4.42
X6.1606Y-3.3517
X6.161Y-3.264
X6.161Y-3.298
X6.162Y-3.23
X6.1999Y-3.38
X6.2Y-4.05
X6.2Y-4.15
X6.2Y-4.4
X6.234Y-3.958
X6.236Y-4.367
X6.246Y-3.353
X6.246Y-4.6125
X6.247Y-3.501
X6.247Y-3.55
X6.248Y-3.601
X6.25Y-4.8
X6.25Y-5.0
X6.269Y-3.38
X6.28Y-3.602
X6.289Y-3.41
X6.294Y-3.23
X6.294Y-3.264
X6.294Y-3.298
X6.312Y-3.603
X6.313Y-3.879
X6.345Y-3.603
X6.35Y-3.405
X6.35Y-4.45
X6.35Y-4.8
X6.35Y-4.9
X6.35Y-5.0
X6.35Y-5.2
X6.35Y-5.4
X6.377Y-3.603
X6.377Y-3.635
X6.473Y-4.756
X6.505Y-4.756
X6.528Y-4.734
X6.54Y-4.574
X6.55Y-2.8
X6.55Y-3.0
X6.55Y-4.8
X6.55Y-5.2
X6.56Y-4.734
X6.568Y-3.401
X6.568Y-3.622
X6.572Y-4.575
X6.592Y-4.734
X6.601Y-3.451
X6.601Y-3.622
X6.61Y-4.853
X6.61Y-4.9
X6.623Y-4.733
X6.655Y-3.988
X6.657Y-4.734
X6.68Y-4.71
X6.684Y-4.528
X6.687Y-3.988
X6.707Y-4.549
X6.708Y-4.247
X6.716Y-4.659
X6.716Y-4.711
X6.719Y-3.988
X6.721Y-5.053
X6.73Y-4.571
X6.734Y-4.265
X6.738Y-4.6815
X6.744Y-3.968
X6.747Y-5.101
X6.747Y-5.15
X6.75Y-2.8
X6.75Y-3.0
X6.75Y-4.35
X6.757Y-4.288
X6.767Y-3.947
X6.79Y-3.968
X6.813Y-3.946
X6.817Y-5.001
X6.835Y-2.748
X6.836Y-3.967
X6.85Y-5.8
X6.886Y-3.849
X6.889Y-3.745
X6.914Y-4.249
X6.916Y-4.65
X6.918Y-4.849
X6.922Y-2.851
X6.922Y-2.929
X6.923Y-3.877
X6.931Y-3.651
X6.934Y-5.052
X6.935Y-5.15
X7.0644Y-3.9976
X7.149Y-3.8
X7.149Y-3.9
X7.15Y-2.8
X7.15Y-3.203
X7.15Y-3.299
X7.15Y-3.4
X7.15Y-3.501
X7.15Y-5.8
X7.151Y-2.999
X7.151Y-3.601
X7.151Y-3.7
X7.35Y-2.8
X7.35Y-5.8
X7.45Y-2.7
X7.512Y-5.71
T2
X3.7945Y-4.65
X3.8945Y-4.65
X3.9945Y-4.65
X4.0945Y-4.65
X4.29Y-3.12
X4.39Y-3.12
X4.49Y-3.12
X5.02Y-2.78
X5.02Y-2.88
X5.12Y-2.77
X5.12Y-2.87
X5.22Y-2.78
X5.22Y-2.88
X5.32Y-2.77
X5.32Y-2.87
X5.42Y-2.78
X5.42Y-2.88
X5.52Y-2.77
X5.52Y-2.87
X5.62Y-2.78
X5.62Y-2.88
X5.72Y-2.77
X5.72Y-2.87
X5.82Y-2.78
X5.82Y-2.88
X5.92Y-2.77
X5.92Y-2.87
X6.28Y-3.726
X6.38Y-3.726
X6.48Y-3.726
X6.99Y-2.7
X6.99Y-2.8
X6.99Y-2.9
X6.99Y-3.0
X6.99Y-3.1
X6.99Y-3.2
X6.99Y-3.3
X6.99Y-3.4
X6.99Y-3.5
X6.99Y-3.6
X6.99Y-3.7
X6.99Y-3.8
X6.99Y-3.9
X6.99Y-4.0
X6.99Y-4.1
X6.99Y-4.2
X6.99Y-4.3
X6.99Y-4.4
X6.99Y-4.5
X6.99Y-4.6
X6.99Y-4.7
X6.99Y-4.8
X6.99Y-4.9
X6.99Y-5.0
X6.99Y-5.1
X6.99Y-5.2
X6.99Y-5.3
X6.99Y-5.4
X6.99Y-5.5
X6.99Y-5.6
X6.99Y-5.7
X6.99Y-5.8
X7.69Y-2.7
X7.69Y-2.8
X7.69Y-2.9
X7.69Y-3.0
X7.69Y-3.1
X7.69Y-3.2
X7.69Y-3.3
X7.69Y-3.4
X7.69Y-3.5
X7.69Y-3.6
X7.69Y-3.7
X7.69Y-3.8
X7.69Y-3.9
X7.69Y-4.0
X7.69Y-4.1
X7.69Y-4.2
X7.69Y-4.3
X7.69Y-4.4
X7.69Y-4.5
X7.69Y-4.6
X7.69Y-4.7
X7.69Y-4.8
X7.69Y-4.9
X7.69Y-5.0
X7.69Y-5.1
X7.69Y-5.2
X7.69Y-5.3
X7.69Y-5.4
X7.69Y-5.5
X7.69Y-5.6
X7.69Y-5.7
X7.69Y-5.8
X8.29Y-2.7
X8.29Y-2.8
X8.29Y-2.9
X8.29Y-3.0
X8.29Y-3.1
X8.29Y-3.2
X8.29Y-3.3
X8.29Y-3.4
X8.29Y-3.5
X8.29Y-3.6
X8.29Y-3.7
X8.29Y-3.8
X8.29Y-3.9
X8.29Y-4.0
X8.29Y-4.1
X8.29Y-4.2
X8.29Y-4.3
X8.29Y-4.4
X8.29Y-4.5
X8.29Y-4.6
X8.29Y-4.7
X8.29Y-4.8
X8.29Y-4.9
X8.29Y-5.0
X8.29Y-5.1
X8.29Y-5.2
X8.29Y-5.3
X8.29Y-5.4
X8.29Y-5.5
X8.29Y-5.6
X8.29Y-5.7
X8.29Y-5.8
X8.39Y-2.7
X8.39Y-2.8
X8.39Y-2.9
X8.39Y-3.0
X8.39Y-3.1
X8.39Y-3.2
X8.39Y-3.3
X8.39Y-3.4
X8.39Y-3.5
X8.39Y-3.6
X8.39Y-3.7
X8.39Y-3.8
X8.39Y-3.9
X8.39Y-4.0
X8.39Y-4.1
X8.39Y-4.2
X8.39Y-4.3
X8.39Y-4.4
X8.39Y-4.5
X8.39Y-4.6
X8.39Y-4.7
X8.39Y-4.8
X8.39Y-4.9
X8.39Y-5.0
X8.39Y-5.1
X8.39Y-5.2
X8.39Y-5.3
X8.39Y-5.4
X8.39Y-5.5
X8.39Y-5.6
X8.39Y-5.7
X8.39Y-5.8
T3
X3.1Y-2.75
X3.1Y-5.75
X3.35Y-4.65
X3.35Y-5.772
X4.5469Y-4.65
X4.5469Y-5.772
X7.9Y-2.75
X7.9Y-5.75
T0
M30
