%TF.GenerationSoftware,KiCad,Pcbnew,(6.0.5)*%
%TF.CreationDate,2022-08-23T15:07:46-04:00*%
%TF.ProjectId,UMDv3,554d4476-332e-46b6-9963-61645f706362,rev?*%
%TF.SameCoordinates,Original*%
%TF.FileFunction,Soldermask,Top*%
%TF.FilePolarity,Negative*%
%FSLAX46Y46*%
G04 Gerber Fmt 4.6, Leading zero omitted, Abs format (unit mm)*
G04 Created by KiCad (PCBNEW (6.0.5)) date 2022-08-23 15:07:46*
%MOMM*%
%LPD*%
G01*
G04 APERTURE LIST*
G04 Aperture macros list*
%AMRoundRect*
0 Rectangle with rounded corners*
0 $1 Rounding radius*
0 $2 $3 $4 $5 $6 $7 $8 $9 X,Y pos of 4 corners*
0 Add a 4 corners polygon primitive as box body*
4,1,4,$2,$3,$4,$5,$6,$7,$8,$9,$2,$3,0*
0 Add four circle primitives for the rounded corners*
1,1,$1+$1,$2,$3*
1,1,$1+$1,$4,$5*
1,1,$1+$1,$6,$7*
1,1,$1+$1,$8,$9*
0 Add four rect primitives between the rounded corners*
20,1,$1+$1,$2,$3,$4,$5,0*
20,1,$1+$1,$4,$5,$6,$7,0*
20,1,$1+$1,$6,$7,$8,$9,0*
20,1,$1+$1,$8,$9,$2,$3,0*%
G04 Aperture macros list end*
%ADD10RoundRect,0.101600X-0.400000X-0.500000X0.400000X-0.500000X0.400000X0.500000X-0.400000X0.500000X0*%
%ADD11RoundRect,0.101600X0.508000X0.635000X-0.508000X0.635000X-0.508000X-0.635000X0.508000X-0.635000X0*%
%ADD12RoundRect,0.101600X0.500000X-0.400000X0.500000X0.400000X-0.500000X0.400000X-0.500000X-0.400000X0*%
%ADD13RoundRect,0.100000X0.950000X0.950000X-0.950000X0.950000X-0.950000X-0.950000X0.950000X-0.950000X0*%
%ADD14RoundRect,0.100000X1.050000X0.800000X-1.050000X0.800000X-1.050000X-0.800000X1.050000X-0.800000X0*%
%ADD15RoundRect,0.100000X0.200000X0.675000X-0.200000X0.675000X-0.200000X-0.675000X0.200000X-0.675000X0*%
%ADD16C,1.727200*%
%ADD17C,1.403200*%
%ADD18RoundRect,0.101600X-1.000000X0.350000X-1.000000X-0.350000X1.000000X-0.350000X1.000000X0.350000X0*%
%ADD19RoundRect,0.101600X-1.750000X1.500000X-1.750000X-1.500000X1.750000X-1.500000X1.750000X1.500000X0*%
%ADD20RoundRect,0.101600X-1.000000X0.475000X-1.000000X-0.475000X1.000000X-0.475000X1.000000X0.475000X0*%
%ADD21RoundRect,0.101600X-1.000000X0.600000X-1.000000X-0.600000X1.000000X-0.600000X1.000000X0.600000X0*%
%ADD22RoundRect,0.101600X0.400000X0.500000X-0.400000X0.500000X-0.400000X-0.500000X0.400000X-0.500000X0*%
%ADD23RoundRect,0.101600X-0.500000X0.400000X-0.500000X-0.400000X0.500000X-0.400000X0.500000X0.400000X0*%
%ADD24R,1.550000X1.300000*%
%ADD25RoundRect,0.101600X0.635000X-0.508000X0.635000X0.508000X-0.635000X0.508000X-0.635000X-0.508000X0*%
%ADD26RoundRect,0.101600X-0.508000X-0.635000X0.508000X-0.635000X0.508000X0.635000X-0.508000X0.635000X0*%
%ADD27RoundRect,0.101600X0.500000X0.500000X-0.500000X0.500000X-0.500000X-0.500000X0.500000X-0.500000X0*%
%ADD28RoundRect,0.101600X-0.500000X0.500000X-0.500000X-0.500000X0.500000X-0.500000X0.500000X0.500000X0*%
%ADD29C,3.810000*%
%ADD30RoundRect,0.110000X0.145000X-0.925000X0.145000X0.925000X-0.145000X0.925000X-0.145000X-0.925000X0*%
%ADD31RoundRect,0.110000X0.925000X0.145000X-0.925000X0.145000X-0.925000X-0.145000X0.925000X-0.145000X0*%
%ADD32RoundRect,0.110000X-0.925000X-0.145000X0.925000X-0.145000X0.925000X0.145000X-0.925000X0.145000X0*%
%ADD33RoundRect,0.101600X-0.250000X1.100000X-0.250000X-1.100000X0.250000X-1.100000X0.250000X1.100000X0*%
%ADD34RoundRect,0.110000X-2.800000X-1.050000X2.800000X-1.050000X2.800000X1.050000X-2.800000X1.050000X0*%
%ADD35RoundRect,0.101600X0.600000X1.100000X-0.600000X1.100000X-0.600000X-1.100000X0.600000X-1.100000X0*%
%ADD36RoundRect,0.101600X1.750000X1.100000X-1.750000X1.100000X-1.750000X-1.100000X1.750000X-1.100000X0*%
G04 APERTURE END LIST*
D10*
%TO.C,C101*%
X125542000Y-77470000D03*
X127442000Y-77470000D03*
%TD*%
D11*
%TO.C,C102*%
X111506000Y-84201000D03*
X109347000Y-84201000D03*
%TD*%
D12*
%TO.C,C104*%
X159004000Y-73848000D03*
X159004000Y-71948000D03*
%TD*%
D13*
%TO.C,CON101*%
X107910000Y-67564000D03*
X110560000Y-67564000D03*
D14*
X114910000Y-70114000D03*
D13*
X115610000Y-67564000D03*
D14*
X108610000Y-70114000D03*
D13*
X112960000Y-67564000D03*
D15*
X113060000Y-70239000D03*
X112410000Y-70239000D03*
X111760000Y-70239000D03*
X111110000Y-70239000D03*
X110460000Y-70239000D03*
%TD*%
D16*
%TO.C,CON103*%
X108966000Y-79248000D03*
X111506000Y-79248000D03*
X114046000Y-79248000D03*
%TD*%
%TO.C,CON104*%
X127508000Y-73152000D03*
X127508000Y-70612000D03*
X130048000Y-72898000D03*
X130048000Y-70358000D03*
X132588000Y-73152000D03*
X132588000Y-70612000D03*
X135128000Y-72898000D03*
X135128000Y-70358000D03*
X137668000Y-73152000D03*
X137668000Y-70612000D03*
X140208000Y-72898000D03*
X140208000Y-70358000D03*
X142748000Y-73152000D03*
X142748000Y-70612000D03*
X145288000Y-72898000D03*
X145288000Y-70358000D03*
X147828000Y-73152000D03*
X147828000Y-70612000D03*
X150368000Y-72898000D03*
X150368000Y-70358000D03*
%TD*%
D17*
%TO.C,CON105*%
X101135000Y-84474000D03*
X101135000Y-109074000D03*
D18*
X103235000Y-103149000D03*
X103235000Y-100649000D03*
X103235000Y-98149000D03*
X103235000Y-95649000D03*
X103235000Y-93149000D03*
X103235000Y-90649000D03*
X103235000Y-88224000D03*
X103235000Y-86524000D03*
X103235000Y-105649000D03*
D19*
X80335000Y-111274000D03*
D20*
X103235000Y-101774000D03*
D21*
X103235000Y-84219000D03*
D19*
X80335000Y-82274000D03*
%TD*%
D22*
%TO.C,R101*%
X149692400Y-89992200D03*
X147792400Y-89992200D03*
%TD*%
D23*
%TO.C,R102*%
X131064000Y-105857000D03*
X131064000Y-107757000D03*
%TD*%
%TO.C,R103*%
X132588000Y-105857000D03*
X132588000Y-107757000D03*
%TD*%
D24*
%TO.C,SW101*%
X161379000Y-70648000D03*
X169329000Y-70648000D03*
X161354000Y-75148000D03*
X169354000Y-75148000D03*
%TD*%
D25*
%TO.C,C105*%
X146456400Y-95377000D03*
X146456400Y-93218000D03*
%TD*%
D11*
%TO.C,C106*%
X162509200Y-97002600D03*
X160350200Y-97002600D03*
%TD*%
D26*
%TO.C,C107*%
X140589000Y-95885000D03*
X142748000Y-95885000D03*
%TD*%
D12*
%TO.C,C108*%
X119405400Y-100873600D03*
X119405400Y-98973600D03*
%TD*%
D22*
%TO.C,C110*%
X157363200Y-121564400D03*
X155463200Y-121564400D03*
%TD*%
D26*
%TO.C,C111*%
X171450000Y-68326000D03*
X173609000Y-68326000D03*
%TD*%
D25*
%TO.C,C112*%
X192278000Y-70739000D03*
X192278000Y-68580000D03*
%TD*%
%TO.C,C113*%
X192405000Y-147193000D03*
X192405000Y-145034000D03*
%TD*%
D23*
%TO.C,C114*%
X106299000Y-95824000D03*
X106299000Y-97724000D03*
%TD*%
D27*
%TO.C,D103*%
X105054400Y-73685400D03*
X103254400Y-73685400D03*
%TD*%
D28*
%TO.C,D104*%
X121945400Y-87655400D03*
X121945400Y-89455400D03*
%TD*%
D26*
%TO.C,FB101*%
X140589000Y-92964000D03*
X142748000Y-92964000D03*
%TD*%
D12*
%TO.C,R104*%
X159004000Y-77912000D03*
X159004000Y-76012000D03*
%TD*%
D10*
%TO.C,R107*%
X131307800Y-100634800D03*
X133207800Y-100634800D03*
%TD*%
D22*
%TO.C,R108*%
X133207800Y-98983800D03*
X131307800Y-98983800D03*
%TD*%
D10*
%TO.C,R109*%
X103190000Y-75819000D03*
X105090000Y-75819000D03*
%TD*%
D23*
%TO.C,R110*%
X121945400Y-91201200D03*
X121945400Y-93101200D03*
%TD*%
D24*
%TO.C,SW105*%
X120459600Y-134630600D03*
X128409600Y-134630600D03*
X120434600Y-139130600D03*
X128434600Y-139130600D03*
%TD*%
D16*
%TO.C,CON106*%
X210566000Y-68580000D03*
X177546000Y-68580000D03*
X210566000Y-71120000D03*
X177546000Y-71120000D03*
X210566000Y-73660000D03*
X177546000Y-73660000D03*
X177546000Y-76200000D03*
X210566000Y-76200000D03*
X177546000Y-78740000D03*
X210566000Y-78740000D03*
X210566000Y-81280000D03*
X177546000Y-81280000D03*
X210566000Y-83820000D03*
X177546000Y-83820000D03*
X210566000Y-86360000D03*
X177546000Y-86360000D03*
X210566000Y-88900000D03*
X177546000Y-88900000D03*
X177546000Y-91440000D03*
X210566000Y-91440000D03*
X210566000Y-93980000D03*
X177546000Y-93980000D03*
X177546000Y-96520000D03*
X210566000Y-96520000D03*
X210566000Y-99060000D03*
X177546000Y-99060000D03*
X177546000Y-101600000D03*
X210566000Y-101600000D03*
X210566000Y-104140000D03*
X177546000Y-104140000D03*
X177546000Y-106680000D03*
X210566000Y-106680000D03*
X210566000Y-109220000D03*
X177546000Y-109220000D03*
X210566000Y-111760000D03*
X177546000Y-111760000D03*
X210566000Y-114300000D03*
X177546000Y-114300000D03*
X210566000Y-116840000D03*
X177546000Y-116840000D03*
X210566000Y-119380000D03*
X177546000Y-119380000D03*
X210566000Y-121920000D03*
X177546000Y-121920000D03*
X177546000Y-124460000D03*
X210566000Y-124460000D03*
X177546000Y-127000000D03*
X210566000Y-127000000D03*
X210566000Y-129540000D03*
X177546000Y-129540000D03*
X210566000Y-132080000D03*
X177546000Y-132080000D03*
X177546000Y-134620000D03*
X210566000Y-134620000D03*
X210566000Y-137160000D03*
X177546000Y-137160000D03*
X210566000Y-139700000D03*
X177546000Y-139700000D03*
X177546000Y-142240000D03*
X210566000Y-142240000D03*
X177546000Y-144780000D03*
X210566000Y-144780000D03*
X210566000Y-147320000D03*
X177546000Y-147320000D03*
X213106000Y-147320000D03*
X195326000Y-147320000D03*
X213106000Y-144780000D03*
X195326000Y-144780000D03*
X213106000Y-142240000D03*
X195326000Y-142240000D03*
X213106000Y-139700000D03*
X195326000Y-139700000D03*
X213106000Y-137160000D03*
X195326000Y-137160000D03*
X213106000Y-134620000D03*
X195326000Y-134620000D03*
X213106000Y-132080000D03*
X195326000Y-132080000D03*
X213106000Y-129540000D03*
X195326000Y-129540000D03*
X195326000Y-127000000D03*
X213106000Y-127000000D03*
X195326000Y-124460000D03*
X213106000Y-124460000D03*
X195326000Y-121920000D03*
X213106000Y-121920000D03*
X195326000Y-119380000D03*
X213106000Y-119380000D03*
X195326000Y-116840000D03*
X213106000Y-116840000D03*
X213106000Y-114300000D03*
X195326000Y-114300000D03*
X195326000Y-111760000D03*
X213106000Y-111760000D03*
X213106000Y-109220000D03*
X195326000Y-109220000D03*
X213106000Y-106680000D03*
X195326000Y-106680000D03*
X195326000Y-104140000D03*
X213106000Y-104140000D03*
X195326000Y-101600000D03*
X213106000Y-101600000D03*
X213106000Y-99060000D03*
X195326000Y-99060000D03*
X195326000Y-96520000D03*
X213106000Y-96520000D03*
X195326000Y-93980000D03*
X213106000Y-93980000D03*
X213106000Y-91440000D03*
X195326000Y-91440000D03*
X213106000Y-88900000D03*
X195326000Y-88900000D03*
X195326000Y-86360000D03*
X213106000Y-86360000D03*
X195326000Y-83820000D03*
X213106000Y-83820000D03*
X195326000Y-81280000D03*
X213106000Y-81280000D03*
X213106000Y-78740000D03*
X195326000Y-78740000D03*
X195326000Y-76200000D03*
X213106000Y-76200000D03*
X195326000Y-73660000D03*
X213106000Y-73660000D03*
X213106000Y-71120000D03*
X195326000Y-71120000D03*
X195326000Y-68580000D03*
X213106000Y-68580000D03*
%TD*%
D29*
%TO.C,MEC102*%
X78740000Y-146050000D03*
%TD*%
%TO.C,MEC103*%
X200660000Y-69850000D03*
%TD*%
%TO.C,MEC104*%
X200660000Y-146050000D03*
%TD*%
%TO.C,MEC101*%
X78740000Y-69850000D03*
%TD*%
D24*
%TO.C,SW107*%
X130619600Y-127010600D03*
X138569600Y-127010600D03*
X130594600Y-131510600D03*
X138594600Y-131510600D03*
%TD*%
%TO.C,SW106*%
X130619600Y-142250600D03*
X138569600Y-142250600D03*
X130594600Y-146750600D03*
X138594600Y-146750600D03*
%TD*%
%TO.C,SW103*%
X162369600Y-142250600D03*
X170319600Y-142250600D03*
X162344600Y-146750600D03*
X170344600Y-146750600D03*
%TD*%
%TO.C,SW102*%
X150939600Y-142250600D03*
X158889600Y-142250600D03*
X150914600Y-146750600D03*
X158914600Y-146750600D03*
%TD*%
%TO.C,SW104*%
X140779600Y-134630600D03*
X148729600Y-134630600D03*
X140754600Y-139130600D03*
X148754600Y-139130600D03*
%TD*%
D27*
%TO.C,D102*%
X167106600Y-137134600D03*
X165306600Y-137134600D03*
%TD*%
D10*
%TO.C,R106*%
X165394600Y-135102600D03*
X167294600Y-135102600D03*
%TD*%
D27*
%TO.C,D101*%
X155930600Y-137134600D03*
X154130600Y-137134600D03*
%TD*%
D22*
%TO.C,R105*%
X156118600Y-135102600D03*
X154218600Y-135102600D03*
%TD*%
D16*
%TO.C,U104*%
X96380000Y-118110000D03*
X98920000Y-118110000D03*
X101460000Y-118110000D03*
X104000000Y-118110000D03*
%TD*%
D10*
%TO.C,C116*%
X96713000Y-113919000D03*
X98613000Y-113919000D03*
%TD*%
D23*
%TO.C,C115*%
X134366000Y-118938000D03*
X134366000Y-120838000D03*
%TD*%
D30*
%TO.C,U103*%
X146050000Y-113792000D03*
X146550000Y-113792000D03*
X147050000Y-113792000D03*
X147550000Y-113792000D03*
X148050000Y-113792000D03*
X148550000Y-113792000D03*
X149050000Y-113792000D03*
X149550000Y-113792000D03*
X150050000Y-113792000D03*
X150550000Y-113792000D03*
X151050000Y-113792000D03*
X151550000Y-113792000D03*
X152050000Y-113792000D03*
X152550000Y-113792000D03*
X153050000Y-113792000D03*
X153550000Y-113792000D03*
X154050000Y-113792000D03*
X154550000Y-113792000D03*
X155050000Y-113792000D03*
X155550000Y-113792000D03*
X156050000Y-113792000D03*
X156550000Y-113792000D03*
X157050000Y-113792000D03*
X157550000Y-113792000D03*
X158050000Y-113792000D03*
D31*
X159925000Y-111917000D03*
D32*
X159925000Y-111417000D03*
D31*
X159925000Y-110917000D03*
X159925000Y-110417000D03*
X159925000Y-109917000D03*
X159925000Y-109417000D03*
X159925000Y-108917000D03*
X159925000Y-108417000D03*
X159925000Y-107917000D03*
X159925000Y-107417000D03*
X159925000Y-106917000D03*
X159925000Y-106417000D03*
X159925000Y-105917000D03*
X159925000Y-105417000D03*
X159925000Y-104917000D03*
X159925000Y-104417000D03*
X159925000Y-103917000D03*
X159925000Y-103417000D03*
X159925000Y-102917000D03*
X159925000Y-102417000D03*
X159925000Y-101917000D03*
X159925000Y-101417000D03*
X159925000Y-100917000D03*
X159925000Y-100417000D03*
X159925000Y-99917000D03*
D30*
X158050000Y-98042000D03*
X157550000Y-98042000D03*
X157050000Y-98042000D03*
X156550000Y-98042000D03*
X156050000Y-98042000D03*
X155550000Y-98042000D03*
X155050000Y-98042000D03*
X154550000Y-98042000D03*
X154050000Y-98042000D03*
X153550000Y-98042000D03*
X153050000Y-98042000D03*
X152550000Y-98042000D03*
X152050000Y-98042000D03*
X151550000Y-98042000D03*
X151050000Y-98042000D03*
X150550000Y-98042000D03*
X150050000Y-98042000D03*
X149550000Y-98042000D03*
X149050000Y-98042000D03*
X148550000Y-98042000D03*
X148050000Y-98042000D03*
X147550000Y-98042000D03*
X147050000Y-98042000D03*
X146550000Y-98042000D03*
X146050000Y-98042000D03*
D31*
X144175000Y-99917000D03*
X144175000Y-100417000D03*
X144175000Y-100917000D03*
X144175000Y-101417000D03*
X144175000Y-101917000D03*
X144175000Y-102417000D03*
X144175000Y-102917000D03*
X144175000Y-103417000D03*
X144175000Y-103917000D03*
X144175000Y-104417000D03*
X144175000Y-104917000D03*
X144175000Y-105417000D03*
X144175000Y-105917000D03*
X144175000Y-106417000D03*
X144175000Y-106917000D03*
X144175000Y-107417000D03*
X144175000Y-107917000D03*
X144175000Y-108417000D03*
X144175000Y-108917000D03*
X144175000Y-109417000D03*
X144175000Y-109917000D03*
X144175000Y-110417000D03*
X144175000Y-110917000D03*
X144175000Y-111417000D03*
X144175000Y-111917000D03*
%TD*%
D33*
%TO.C,U101*%
X132334000Y-110744000D03*
X131064000Y-110744000D03*
X129794000Y-110744000D03*
X128524000Y-110744000D03*
X127254000Y-110744000D03*
X125984000Y-110744000D03*
X124714000Y-110744000D03*
X123444000Y-110744000D03*
X122174000Y-110744000D03*
X122174000Y-120744000D03*
X123444000Y-120744000D03*
X124714000Y-120744000D03*
X125984000Y-120744000D03*
X127254000Y-120744000D03*
X128524000Y-120744000D03*
X129794000Y-120744000D03*
X131064000Y-120744000D03*
X132334000Y-120744000D03*
%TD*%
D13*
%TO.C,CON102*%
X100370000Y-67564000D03*
X92670000Y-67564000D03*
X95320000Y-67564000D03*
D14*
X99670000Y-70114000D03*
D13*
X97720000Y-67564000D03*
D14*
X93370000Y-70114000D03*
D15*
X97820000Y-70239000D03*
X97170000Y-70239000D03*
X96520000Y-70239000D03*
X95870000Y-70239000D03*
X95220000Y-70239000D03*
%TD*%
D34*
%TO.C,X101*%
X147853200Y-124866400D03*
X157353200Y-124866400D03*
%TD*%
D10*
%TO.C,C109*%
X147843200Y-121564400D03*
X149743200Y-121564400D03*
%TD*%
D24*
%TO.C,SW108*%
X121424800Y-98969000D03*
X129374800Y-98969000D03*
X121399800Y-103469000D03*
X129399800Y-103469000D03*
%TD*%
D12*
%TO.C,R111*%
X106299000Y-101788000D03*
X106299000Y-99888000D03*
%TD*%
D35*
%TO.C,U102*%
X116219000Y-86868000D03*
D36*
X113919000Y-93068000D03*
D35*
X113919000Y-86868000D03*
X111619000Y-86868000D03*
%TD*%
D25*
%TO.C,C103*%
X118872000Y-93091000D03*
X118872000Y-90932000D03*
%TD*%
D16*
%TO.C,CON107*%
X159512000Y-94640400D03*
X162052000Y-94640400D03*
X164592000Y-94640400D03*
%TD*%
M02*
