%TF.GenerationSoftware,KiCad,Pcbnew,(6.0.5)*%
%TF.CreationDate,2022-08-23T15:07:46-04:00*%
%TF.ProjectId,UMDv3,554d4476-332e-46b6-9963-61645f706362,rev?*%
%TF.SameCoordinates,Original*%
%TF.FileFunction,Legend,Bot*%
%TF.FilePolarity,Positive*%
%FSLAX46Y46*%
G04 Gerber Fmt 4.6, Leading zero omitted, Abs format (unit mm)*
G04 Created by KiCad (PCBNEW (6.0.5)) date 2022-08-23 15:07:46*
%MOMM*%
%LPD*%
G01*
G04 APERTURE LIST*
%ADD10C,0.203200*%
%ADD11C,0.254000*%
G04 APERTURE END LIST*
D10*
%TO.C,C117*%
X151549100Y-105939166D02*
X151591433Y-105896833D01*
X151633766Y-105769833D01*
X151633766Y-105685166D01*
X151591433Y-105558166D01*
X151506766Y-105473500D01*
X151422100Y-105431166D01*
X151252766Y-105388833D01*
X151125766Y-105388833D01*
X150956433Y-105431166D01*
X150871766Y-105473500D01*
X150787100Y-105558166D01*
X150744766Y-105685166D01*
X150744766Y-105769833D01*
X150787100Y-105896833D01*
X150829433Y-105939166D01*
X151633766Y-106785833D02*
X151633766Y-106277833D01*
X151633766Y-106531833D02*
X150744766Y-106531833D01*
X150871766Y-106447166D01*
X150956433Y-106362500D01*
X150998766Y-106277833D01*
X151633766Y-107632500D02*
X151633766Y-107124500D01*
X151633766Y-107378500D02*
X150744766Y-107378500D01*
X150871766Y-107293833D01*
X150956433Y-107209166D01*
X150998766Y-107124500D01*
X150744766Y-107928833D02*
X150744766Y-108521500D01*
X151633766Y-108140500D01*
%TO.C,C118*%
X154156833Y-100647500D02*
X154199166Y-100689833D01*
X154326166Y-100732166D01*
X154410833Y-100732166D01*
X154537833Y-100689833D01*
X154622500Y-100605166D01*
X154664833Y-100520500D01*
X154707166Y-100351166D01*
X154707166Y-100224166D01*
X154664833Y-100054833D01*
X154622500Y-99970166D01*
X154537833Y-99885500D01*
X154410833Y-99843166D01*
X154326166Y-99843166D01*
X154199166Y-99885500D01*
X154156833Y-99927833D01*
X153310166Y-100732166D02*
X153818166Y-100732166D01*
X153564166Y-100732166D02*
X153564166Y-99843166D01*
X153648833Y-99970166D01*
X153733500Y-100054833D01*
X153818166Y-100097166D01*
X152463500Y-100732166D02*
X152971500Y-100732166D01*
X152717500Y-100732166D02*
X152717500Y-99843166D01*
X152802166Y-99970166D01*
X152886833Y-100054833D01*
X152971500Y-100097166D01*
X151955500Y-100224166D02*
X152040166Y-100181833D01*
X152082500Y-100139500D01*
X152124833Y-100054833D01*
X152124833Y-100012500D01*
X152082500Y-99927833D01*
X152040166Y-99885500D01*
X151955500Y-99843166D01*
X151786166Y-99843166D01*
X151701500Y-99885500D01*
X151659166Y-99927833D01*
X151616833Y-100012500D01*
X151616833Y-100054833D01*
X151659166Y-100139500D01*
X151701500Y-100181833D01*
X151786166Y-100224166D01*
X151955500Y-100224166D01*
X152040166Y-100266500D01*
X152082500Y-100308833D01*
X152124833Y-100393500D01*
X152124833Y-100562833D01*
X152082500Y-100647500D01*
X152040166Y-100689833D01*
X151955500Y-100732166D01*
X151786166Y-100732166D01*
X151701500Y-100689833D01*
X151659166Y-100647500D01*
X151616833Y-100562833D01*
X151616833Y-100393500D01*
X151659166Y-100308833D01*
X151701500Y-100266500D01*
X151786166Y-100224166D01*
%TO.C,C120*%
X156925433Y-106641900D02*
X156967766Y-106684233D01*
X157094766Y-106726566D01*
X157179433Y-106726566D01*
X157306433Y-106684233D01*
X157391100Y-106599566D01*
X157433433Y-106514900D01*
X157475766Y-106345566D01*
X157475766Y-106218566D01*
X157433433Y-106049233D01*
X157391100Y-105964566D01*
X157306433Y-105879900D01*
X157179433Y-105837566D01*
X157094766Y-105837566D01*
X156967766Y-105879900D01*
X156925433Y-105922233D01*
X156078766Y-106726566D02*
X156586766Y-106726566D01*
X156332766Y-106726566D02*
X156332766Y-105837566D01*
X156417433Y-105964566D01*
X156502100Y-106049233D01*
X156586766Y-106091566D01*
X155740100Y-105922233D02*
X155697766Y-105879900D01*
X155613100Y-105837566D01*
X155401433Y-105837566D01*
X155316766Y-105879900D01*
X155274433Y-105922233D01*
X155232100Y-106006900D01*
X155232100Y-106091566D01*
X155274433Y-106218566D01*
X155782433Y-106726566D01*
X155232100Y-106726566D01*
X154681766Y-105837566D02*
X154597100Y-105837566D01*
X154512433Y-105879900D01*
X154470100Y-105922233D01*
X154427766Y-106006900D01*
X154385433Y-106176233D01*
X154385433Y-106387900D01*
X154427766Y-106557233D01*
X154470100Y-106641900D01*
X154512433Y-106684233D01*
X154597100Y-106726566D01*
X154681766Y-106726566D01*
X154766433Y-106684233D01*
X154808766Y-106641900D01*
X154851100Y-106557233D01*
X154893433Y-106387900D01*
X154893433Y-106176233D01*
X154851100Y-106006900D01*
X154808766Y-105922233D01*
X154766433Y-105879900D01*
X154681766Y-105837566D01*
%TO.C,C121*%
X158102300Y-109190366D02*
X158144633Y-109148033D01*
X158186966Y-109021033D01*
X158186966Y-108936366D01*
X158144633Y-108809366D01*
X158059966Y-108724700D01*
X157975300Y-108682366D01*
X157805966Y-108640033D01*
X157678966Y-108640033D01*
X157509633Y-108682366D01*
X157424966Y-108724700D01*
X157340300Y-108809366D01*
X157297966Y-108936366D01*
X157297966Y-109021033D01*
X157340300Y-109148033D01*
X157382633Y-109190366D01*
X158186966Y-110037033D02*
X158186966Y-109529033D01*
X158186966Y-109783033D02*
X157297966Y-109783033D01*
X157424966Y-109698366D01*
X157509633Y-109613700D01*
X157551966Y-109529033D01*
X157382633Y-110375700D02*
X157340300Y-110418033D01*
X157297966Y-110502700D01*
X157297966Y-110714366D01*
X157340300Y-110799033D01*
X157382633Y-110841366D01*
X157467300Y-110883700D01*
X157551966Y-110883700D01*
X157678966Y-110841366D01*
X158186966Y-110333366D01*
X158186966Y-110883700D01*
X158186966Y-111730366D02*
X158186966Y-111222366D01*
X158186966Y-111476366D02*
X157297966Y-111476366D01*
X157424966Y-111391700D01*
X157509633Y-111307033D01*
X157551966Y-111222366D01*
%TO.C,C122*%
X148907500Y-109495166D02*
X148949833Y-109452833D01*
X148992166Y-109325833D01*
X148992166Y-109241166D01*
X148949833Y-109114166D01*
X148865166Y-109029500D01*
X148780500Y-108987166D01*
X148611166Y-108944833D01*
X148484166Y-108944833D01*
X148314833Y-108987166D01*
X148230166Y-109029500D01*
X148145500Y-109114166D01*
X148103166Y-109241166D01*
X148103166Y-109325833D01*
X148145500Y-109452833D01*
X148187833Y-109495166D01*
X148992166Y-110341833D02*
X148992166Y-109833833D01*
X148992166Y-110087833D02*
X148103166Y-110087833D01*
X148230166Y-110003166D01*
X148314833Y-109918500D01*
X148357166Y-109833833D01*
X148187833Y-110680500D02*
X148145500Y-110722833D01*
X148103166Y-110807500D01*
X148103166Y-111019166D01*
X148145500Y-111103833D01*
X148187833Y-111146166D01*
X148272500Y-111188500D01*
X148357166Y-111188500D01*
X148484166Y-111146166D01*
X148992166Y-110638166D01*
X148992166Y-111188500D01*
X148187833Y-111527166D02*
X148145500Y-111569500D01*
X148103166Y-111654166D01*
X148103166Y-111865833D01*
X148145500Y-111950500D01*
X148187833Y-111992833D01*
X148272500Y-112035166D01*
X148357166Y-112035166D01*
X148484166Y-111992833D01*
X148992166Y-111484833D01*
X148992166Y-112035166D01*
%TO.C,C123*%
X152844500Y-105939166D02*
X152886833Y-105896833D01*
X152929166Y-105769833D01*
X152929166Y-105685166D01*
X152886833Y-105558166D01*
X152802166Y-105473500D01*
X152717500Y-105431166D01*
X152548166Y-105388833D01*
X152421166Y-105388833D01*
X152251833Y-105431166D01*
X152167166Y-105473500D01*
X152082500Y-105558166D01*
X152040166Y-105685166D01*
X152040166Y-105769833D01*
X152082500Y-105896833D01*
X152124833Y-105939166D01*
X152929166Y-106785833D02*
X152929166Y-106277833D01*
X152929166Y-106531833D02*
X152040166Y-106531833D01*
X152167166Y-106447166D01*
X152251833Y-106362500D01*
X152294166Y-106277833D01*
X152124833Y-107124500D02*
X152082500Y-107166833D01*
X152040166Y-107251500D01*
X152040166Y-107463166D01*
X152082500Y-107547833D01*
X152124833Y-107590166D01*
X152209500Y-107632500D01*
X152294166Y-107632500D01*
X152421166Y-107590166D01*
X152929166Y-107082166D01*
X152929166Y-107632500D01*
X152040166Y-107928833D02*
X152040166Y-108479166D01*
X152378833Y-108182833D01*
X152378833Y-108309833D01*
X152421166Y-108394500D01*
X152463500Y-108436833D01*
X152548166Y-108479166D01*
X152759833Y-108479166D01*
X152844500Y-108436833D01*
X152886833Y-108394500D01*
X152929166Y-108309833D01*
X152929166Y-108055833D01*
X152886833Y-107971166D01*
X152844500Y-107928833D01*
%TO.C,C119*%
X148086233Y-102323900D02*
X148128566Y-102366233D01*
X148255566Y-102408566D01*
X148340233Y-102408566D01*
X148467233Y-102366233D01*
X148551900Y-102281566D01*
X148594233Y-102196900D01*
X148636566Y-102027566D01*
X148636566Y-101900566D01*
X148594233Y-101731233D01*
X148551900Y-101646566D01*
X148467233Y-101561900D01*
X148340233Y-101519566D01*
X148255566Y-101519566D01*
X148128566Y-101561900D01*
X148086233Y-101604233D01*
X147239566Y-102408566D02*
X147747566Y-102408566D01*
X147493566Y-102408566D02*
X147493566Y-101519566D01*
X147578233Y-101646566D01*
X147662900Y-101731233D01*
X147747566Y-101773566D01*
X146392900Y-102408566D02*
X146900900Y-102408566D01*
X146646900Y-102408566D02*
X146646900Y-101519566D01*
X146731566Y-101646566D01*
X146816233Y-101731233D01*
X146900900Y-101773566D01*
X145969566Y-102408566D02*
X145800233Y-102408566D01*
X145715566Y-102366233D01*
X145673233Y-102323900D01*
X145588566Y-102196900D01*
X145546233Y-102027566D01*
X145546233Y-101688900D01*
X145588566Y-101604233D01*
X145630900Y-101561900D01*
X145715566Y-101519566D01*
X145884900Y-101519566D01*
X145969566Y-101561900D01*
X146011900Y-101604233D01*
X146054233Y-101688900D01*
X146054233Y-101900566D01*
X146011900Y-101985233D01*
X145969566Y-102027566D01*
X145884900Y-102069900D01*
X145715566Y-102069900D01*
X145630900Y-102027566D01*
X145588566Y-101985233D01*
X145546233Y-101900566D01*
D11*
%TO.C,C117*%
X154000200Y-110109000D02*
X153238200Y-110109000D01*
%TO.C,C118*%
X156464000Y-99949000D02*
X156464000Y-100711000D01*
%TO.C,C120*%
X155930600Y-107416600D02*
X155930600Y-108178600D01*
%TO.C,C121*%
X156794200Y-110109000D02*
X156032200Y-110109000D01*
%TO.C,C122*%
X147447000Y-110617000D02*
X146685000Y-110617000D01*
%TO.C,C123*%
X155397200Y-110109000D02*
X154635200Y-110109000D01*
%TO.C,C119*%
X147015200Y-101041200D02*
X147015200Y-100279200D01*
%TD*%
M02*
