%TF.GenerationSoftware,KiCad,Pcbnew,(6.0.5)*%
%TF.CreationDate,2022-08-23T15:07:46-04:00*%
%TF.ProjectId,UMDv3,554d4476-332e-46b6-9963-61645f706362,rev?*%
%TF.SameCoordinates,Original*%
%TF.FileFunction,Soldermask,Bot*%
%TF.FilePolarity,Negative*%
%FSLAX46Y46*%
G04 Gerber Fmt 4.6, Leading zero omitted, Abs format (unit mm)*
G04 Created by KiCad (PCBNEW (6.0.5)) date 2022-08-23 15:07:46*
%MOMM*%
%LPD*%
G01*
G04 APERTURE LIST*
G04 Aperture macros list*
%AMRoundRect*
0 Rectangle with rounded corners*
0 $1 Rounding radius*
0 $2 $3 $4 $5 $6 $7 $8 $9 X,Y pos of 4 corners*
0 Add a 4 corners polygon primitive as box body*
4,1,4,$2,$3,$4,$5,$6,$7,$8,$9,$2,$3,0*
0 Add four circle primitives for the rounded corners*
1,1,$1+$1,$2,$3*
1,1,$1+$1,$4,$5*
1,1,$1+$1,$6,$7*
1,1,$1+$1,$8,$9*
0 Add four rect primitives between the rounded corners*
20,1,$1+$1,$2,$3,$4,$5,0*
20,1,$1+$1,$4,$5,$6,$7,0*
20,1,$1+$1,$6,$7,$8,$9,0*
20,1,$1+$1,$8,$9,$2,$3,0*%
G04 Aperture macros list end*
%ADD10C,1.727200*%
%ADD11C,1.403200*%
%ADD12C,3.810000*%
%ADD13RoundRect,0.101600X0.500000X-0.400000X0.500000X0.400000X-0.500000X0.400000X-0.500000X-0.400000X0*%
%ADD14RoundRect,0.101600X0.400000X0.500000X-0.400000X0.500000X-0.400000X-0.500000X0.400000X-0.500000X0*%
%ADD15RoundRect,0.101600X-0.400000X-0.500000X0.400000X-0.500000X0.400000X0.500000X-0.400000X0.500000X0*%
G04 APERTURE END LIST*
D10*
%TO.C,CON103*%
X108966000Y-79248000D03*
X111506000Y-79248000D03*
X114046000Y-79248000D03*
%TD*%
%TO.C,CON104*%
X127508000Y-73152000D03*
X127508000Y-70612000D03*
X130048000Y-72898000D03*
X130048000Y-70358000D03*
X132588000Y-73152000D03*
X132588000Y-70612000D03*
X135128000Y-72898000D03*
X135128000Y-70358000D03*
X137668000Y-73152000D03*
X137668000Y-70612000D03*
X140208000Y-72898000D03*
X140208000Y-70358000D03*
X142748000Y-73152000D03*
X142748000Y-70612000D03*
X145288000Y-72898000D03*
X145288000Y-70358000D03*
X147828000Y-73152000D03*
X147828000Y-70612000D03*
X150368000Y-72898000D03*
X150368000Y-70358000D03*
%TD*%
D11*
%TO.C,CON105*%
X101135000Y-84474000D03*
X101135000Y-109074000D03*
%TD*%
D10*
%TO.C,CON106*%
X210566000Y-68580000D03*
X177546000Y-68580000D03*
X210566000Y-71120000D03*
X177546000Y-71120000D03*
X210566000Y-73660000D03*
X177546000Y-73660000D03*
X177546000Y-76200000D03*
X210566000Y-76200000D03*
X177546000Y-78740000D03*
X210566000Y-78740000D03*
X210566000Y-81280000D03*
X177546000Y-81280000D03*
X210566000Y-83820000D03*
X177546000Y-83820000D03*
X210566000Y-86360000D03*
X177546000Y-86360000D03*
X210566000Y-88900000D03*
X177546000Y-88900000D03*
X177546000Y-91440000D03*
X210566000Y-91440000D03*
X210566000Y-93980000D03*
X177546000Y-93980000D03*
X177546000Y-96520000D03*
X210566000Y-96520000D03*
X210566000Y-99060000D03*
X177546000Y-99060000D03*
X177546000Y-101600000D03*
X210566000Y-101600000D03*
X210566000Y-104140000D03*
X177546000Y-104140000D03*
X177546000Y-106680000D03*
X210566000Y-106680000D03*
X210566000Y-109220000D03*
X177546000Y-109220000D03*
X210566000Y-111760000D03*
X177546000Y-111760000D03*
X210566000Y-114300000D03*
X177546000Y-114300000D03*
X210566000Y-116840000D03*
X177546000Y-116840000D03*
X210566000Y-119380000D03*
X177546000Y-119380000D03*
X210566000Y-121920000D03*
X177546000Y-121920000D03*
X177546000Y-124460000D03*
X210566000Y-124460000D03*
X177546000Y-127000000D03*
X210566000Y-127000000D03*
X210566000Y-129540000D03*
X177546000Y-129540000D03*
X210566000Y-132080000D03*
X177546000Y-132080000D03*
X177546000Y-134620000D03*
X210566000Y-134620000D03*
X210566000Y-137160000D03*
X177546000Y-137160000D03*
X210566000Y-139700000D03*
X177546000Y-139700000D03*
X177546000Y-142240000D03*
X210566000Y-142240000D03*
X177546000Y-144780000D03*
X210566000Y-144780000D03*
X210566000Y-147320000D03*
X177546000Y-147320000D03*
X213106000Y-147320000D03*
X195326000Y-147320000D03*
X213106000Y-144780000D03*
X195326000Y-144780000D03*
X213106000Y-142240000D03*
X195326000Y-142240000D03*
X213106000Y-139700000D03*
X195326000Y-139700000D03*
X213106000Y-137160000D03*
X195326000Y-137160000D03*
X213106000Y-134620000D03*
X195326000Y-134620000D03*
X213106000Y-132080000D03*
X195326000Y-132080000D03*
X213106000Y-129540000D03*
X195326000Y-129540000D03*
X195326000Y-127000000D03*
X213106000Y-127000000D03*
X195326000Y-124460000D03*
X213106000Y-124460000D03*
X195326000Y-121920000D03*
X213106000Y-121920000D03*
X195326000Y-119380000D03*
X213106000Y-119380000D03*
X195326000Y-116840000D03*
X213106000Y-116840000D03*
X213106000Y-114300000D03*
X195326000Y-114300000D03*
X195326000Y-111760000D03*
X213106000Y-111760000D03*
X213106000Y-109220000D03*
X195326000Y-109220000D03*
X213106000Y-106680000D03*
X195326000Y-106680000D03*
X195326000Y-104140000D03*
X213106000Y-104140000D03*
X195326000Y-101600000D03*
X213106000Y-101600000D03*
X213106000Y-99060000D03*
X195326000Y-99060000D03*
X195326000Y-96520000D03*
X213106000Y-96520000D03*
X195326000Y-93980000D03*
X213106000Y-93980000D03*
X213106000Y-91440000D03*
X195326000Y-91440000D03*
X213106000Y-88900000D03*
X195326000Y-88900000D03*
X195326000Y-86360000D03*
X213106000Y-86360000D03*
X195326000Y-83820000D03*
X213106000Y-83820000D03*
X195326000Y-81280000D03*
X213106000Y-81280000D03*
X213106000Y-78740000D03*
X195326000Y-78740000D03*
X195326000Y-76200000D03*
X213106000Y-76200000D03*
X195326000Y-73660000D03*
X213106000Y-73660000D03*
X213106000Y-71120000D03*
X195326000Y-71120000D03*
X195326000Y-68580000D03*
X213106000Y-68580000D03*
%TD*%
D12*
%TO.C,MEC102*%
X78740000Y-146050000D03*
%TD*%
%TO.C,MEC103*%
X200660000Y-69850000D03*
%TD*%
%TO.C,MEC104*%
X200660000Y-146050000D03*
%TD*%
%TO.C,MEC101*%
X78740000Y-69850000D03*
%TD*%
D10*
%TO.C,U104*%
X96380000Y-118110000D03*
X98920000Y-118110000D03*
X101460000Y-118110000D03*
X104000000Y-118110000D03*
%TD*%
%TO.C,CON107*%
X159512000Y-94640400D03*
X162052000Y-94640400D03*
X164592000Y-94640400D03*
%TD*%
D13*
%TO.C,C117*%
X153619200Y-111059000D03*
X153619200Y-109159000D03*
%TD*%
D14*
%TO.C,C118*%
X157414000Y-100330000D03*
X155514000Y-100330000D03*
%TD*%
%TO.C,C120*%
X156880600Y-107797600D03*
X154980600Y-107797600D03*
%TD*%
D13*
%TO.C,C121*%
X156413200Y-111059000D03*
X156413200Y-109159000D03*
%TD*%
%TO.C,C122*%
X147066000Y-111567000D03*
X147066000Y-109667000D03*
%TD*%
%TO.C,C123*%
X155016200Y-111059000D03*
X155016200Y-109159000D03*
%TD*%
D15*
%TO.C,C119*%
X146065200Y-100660200D03*
X147965200Y-100660200D03*
%TD*%
M02*
